<?xml version="1.0" encoding="utf-8"?>
<!-- Generator: Adobe Illustrator 28.0.0, SVG Export Plug-In . SVG Version: 6.00 Build 0)  -->
<svg version="1.1"
	 id="svg3001" xmlns:inkscape="http://www.inkscape.org/namespaces/inkscape" xmlns:dc="http://purl.org/dc/elements/1.1/" xmlns:rdf="http://www.w3.org/1999/02/22-rdf-syntax-ns#" xmlns:cc="http://creativecommons.org/ns#" xmlns:svg="http://www.w3.org/2000/svg" xmlns:sodipodi="http://sodipodi.sourceforge.net/DTD/sodipodi-0.dtd"
	 xmlns="http://www.w3.org/2000/svg" xmlns:xlink="http://www.w3.org/1999/xlink" x="0px" y="0px" viewBox="0 0 256 256"
	 style="enable-background:new 0 0 256 256;" xml:space="preserve">
<style type="text/css">
	.st0{fill:#F0F0FF;}
</style>
<script  xmlns=""></script>
<sodipodi:namedview  bordercolor="#666666" borderopacity="1" gridtolerance="10" guidetolerance="10" id="namedview3007" inkscape:current-layer="svg3001" inkscape:cx="954.5" inkscape:cy="896" inkscape:pageopacity="0" inkscape:pageshadow="2" inkscape:window-height="480" inkscape:window-maximized="0" inkscape:window-width="640" inkscape:window-x="0" inkscape:window-y="25" inkscape:zoom="0.13169643" objecttolerance="10" pagecolor="#ffffff" showgrid="false">
	</sodipodi:namedview>
<g id="g3003" transform="matrix(1,0,0,-1,30.372881,1443.4237)">
	<path id="path3005" inkscape:connector-curvature="0" class="st0" d="M207.4,1299.7c0,3.1-2.3,4.6-7,4.6H57.6
		c-3.5,0-7.2-0.9-11.2-2.8s-7.1-4.2-9.4-6.9L-1.6,1247c-1.6-2.1-2.4-3.9-2.4-5.3c0-3.1,2.3-4.6,7-4.6h142.8c3.5,0,7.3,1,11.3,2.9
		c4,1.9,7.1,4.2,9.3,7l38.6,47.7C206.6,1296.6,207.4,1298.3,207.4,1299.7z M57.6,1321.1h100.8v21c0,3.5-1.2,6.5-3.7,8.9
		s-5.4,3.7-8.9,3.7H70.2c-3.5,0-6.5,1.2-8.9,3.7s-3.7,5.4-3.7,8.9v8.4c0,3.5-1.2,6.5-3.7,8.9c-2.5,2.5-5.4,3.7-8.9,3.7H3
		c-3.5,0-6.5-1.2-8.9-3.7c-2.5-2.5-3.7-5.4-3.7-8.9v-112l33.6,41.4c3.9,4.6,8.9,8.5,15.2,11.5C45.6,1319.6,51.7,1321.1,57.6,1321.1z
		 M224.2,1299.7c0-5.4-2-10.7-6-15.8l-38.7-47.7c-3.8-4.6-8.8-8.5-15.2-11.5s-12.5-4.5-18.4-4.5H3c-8.1,0-15,2.9-20.7,8.7
		s-8.7,12.7-8.7,20.7v126c0,8.1,2.9,15,8.7,20.7s12.7,8.7,20.7,8.7h42c8.1,0,15-2.9,20.7-8.7s8.7-12.7,8.7-20.7v-4.2h71.4
		c8.1,0,15-2.9,20.7-8.7c5.8-5.8,8.7-12.7,8.7-20.7v-21h25.2c4.7,0,9.1-1.1,13-3.2s6.9-5.2,8.8-9.3
		C223.6,1305.9,224.2,1302.9,224.2,1299.7z"/>
</g>
<script  xmlns=""></script>
</svg>
