<?xml version="1.0" encoding="utf-8"?>
<!-- Generator: Adobe Illustrator 28.0.0, SVG Export Plug-In . SVG Version: 6.00 Build 0)  -->
<svg version="1.1" id="Layer_1" xmlns="http://www.w3.org/2000/svg" xmlns:xlink="http://www.w3.org/1999/xlink" x="0px" y="0px"
	 viewBox="0 0 800 800" style="enable-background:new 0 0 800 800;" xml:space="preserve">
<style type="text/css">
	.st0{fill:#F0F0F0;}
</style>
<path class="st0" d="M494.4,400.3l208-207.9c26.1-26.1,26.1-68.3,0-94.4s-68.3-26.1-94.4,0L400,305.9l-208-208
	c-26.1-26.1-68.3-26.1-94.4,0s-26.1,68.3,0,94.4l208,207.9l-208,207.9c-26.1,26.1-26.1,68.3,0,94.4c26.2,26.1,68.5,26.1,94.4,0
	l208-207.9l208,207.9c26.1,26.1,68.3,26.1,94.4,0c25.9-26.1,25.9-68.3-0.3-94.4L494.4,400.3z"/>
</svg>
